<svg width="1729" height="1729" viewBox="0 0 1729 1729" fill="none" xmlns="http://www.w3.org/2000/svg">
<g clip-path="url(#clip0_1308_11225)">
<path d="M1729 55.3854H0V58.2674H1729V55.3854Z" fill="#A0A3BD"/>
<path d="M1729 117.515H0V120.397H1729V117.515Z" fill="#A0A3BD"/>
<path d="M1729 179.644H0V182.526H1729V179.644Z" fill="#A0A3BD"/>
<path d="M1729 241.773H0V244.655H1729V241.773Z" fill="#A0A3BD"/>
<path d="M1729 303.902H0V306.784H1729V303.902Z" fill="#A0A3BD"/>
<path d="M1729 366.031H0V368.913H1729V366.031Z" fill="#A0A3BD"/>
<path d="M1729 428.161H0V431.043H1729V428.161Z" fill="#A0A3BD"/>
<path d="M1729 490.29H0V493.172H1729V490.29Z" fill="#A0A3BD"/>
<path d="M1729 552.419H0V555.301H1729V552.419Z" fill="#A0A3BD"/>
<path d="M1729 614.548H0V617.43H1729V614.548Z" fill="#A0A3BD"/>
<path d="M1729 676.677H0V679.559H1729V676.677Z" fill="#A0A3BD"/>
<path d="M1729 738.806H0V741.688H1729V738.806Z" fill="#A0A3BD"/>
<path d="M1729 800.936H0V803.818H1729V800.936Z" fill="#A0A3BD"/>
<path d="M1729 863.065H0V865.947H1729V863.065Z" fill="#A0A3BD"/>
<path d="M1729 925.194H0V928.076H1729V925.194Z" fill="#A0A3BD"/>
<path d="M1729 987.323H0V990.205H1729V987.323Z" fill="#A0A3BD"/>
<path d="M1729 1049.45H0V1052.33H1729V1049.45Z" fill="#A0A3BD"/>
<path d="M1729 1111.58H0V1114.46H1729V1111.58Z" fill="#A0A3BD"/>
<path d="M1729 1173.71H0V1176.59H1729V1173.71Z" fill="#A0A3BD"/>
<path d="M1729 1235.84H0V1238.72H1729V1235.84Z" fill="#A0A3BD"/>
<path d="M1729 1297.97H0V1300.85H1729V1297.97Z" fill="#A0A3BD"/>
<path d="M1729 1360.1H0V1362.98H1729V1360.1Z" fill="#A0A3BD"/>
<path d="M1729 1422.23H0V1425.11H1729V1422.23Z" fill="#A0A3BD"/>
<path d="M1729 1484.36H0V1487.24H1729V1484.36Z" fill="#A0A3BD"/>
<path d="M1729 1546.49H0V1549.37H1729V1546.49Z" fill="#A0A3BD"/>
<path d="M1729 1608.61H0V1611.5H1729V1608.61Z" fill="#A0A3BD"/>
<path d="M1729 1670.74H0V1673.63H1729V1670.74Z" fill="#A0A3BD"/>
<path d="M1729 24.3208H0V27.2028H1729V24.3208Z" fill="#A0A3BD"/>
<path d="M1729 86.45H0V89.332H1729V86.45Z" fill="#A0A3BD"/>
<path d="M1729 148.579H0V151.461H1729V148.579Z" fill="#A0A3BD"/>
<path d="M1729 210.708H0V213.59H1729V210.708Z" fill="#A0A3BD"/>
<path d="M1729 272.838H0V275.72H1729V272.838Z" fill="#A0A3BD"/>
<path d="M1729 334.967H0V337.849H1729V334.967Z" fill="#A0A3BD"/>
<path d="M1729 397.096H0V399.978H1729V397.096Z" fill="#A0A3BD"/>
<path d="M1729 459.225H0V462.107H1729V459.225Z" fill="#A0A3BD"/>
<path d="M1729 521.354H0V524.236H1729V521.354Z" fill="#A0A3BD"/>
<path d="M1729 583.483H0V586.365H1729V583.483Z" fill="#A0A3BD"/>
<path d="M1729 645.613H0V648.495H1729V645.613Z" fill="#A0A3BD"/>
<path d="M1729 707.742H0V710.624H1729V707.742Z" fill="#A0A3BD"/>
<path d="M1729 769.871H0V772.753H1729V769.871Z" fill="#A0A3BD"/>
<path d="M1729 832H0V834.882H1729V832Z" fill="#A0A3BD"/>
<path d="M1729 894.129H0V897.011H1729V894.129Z" fill="#A0A3BD"/>
<path d="M1729 956.259H0V959.141H1729V956.259Z" fill="#A0A3BD"/>
<path d="M1729 1018.39H0V1021.27H1729V1018.39Z" fill="#A0A3BD"/>
<path d="M1729 1080.52H0V1083.4H1729V1080.52Z" fill="#A0A3BD"/>
<path d="M1729 1142.65H0V1145.53H1729V1142.65Z" fill="#A0A3BD"/>
<path d="M1729 1204.78H0V1207.66H1729V1204.78Z" fill="#A0A3BD"/>
<path d="M1729 1266.9H0V1269.79H1729V1266.9Z" fill="#A0A3BD"/>
<path d="M1729 1329.03H0V1331.92H1729V1329.03Z" fill="#A0A3BD"/>
<path d="M1729 1391.16H0V1394.04H1729V1391.16Z" fill="#A0A3BD"/>
<path d="M1729 1453.29H0V1456.17H1729V1453.29Z" fill="#A0A3BD"/>
<path d="M1729 1515.42H0V1518.3H1729V1515.42Z" fill="#A0A3BD"/>
<path d="M1729 1577.55H0V1580.43H1729V1577.55Z" fill="#A0A3BD"/>
<path d="M1729 1639.68H0V1642.56H1729V1639.68Z" fill="#A0A3BD"/>
<path d="M1729 1701.81H0V1704.69H1729V1701.81Z" fill="#A0A3BD"/>
<path d="M30.7682 -4.09683L27.6736 1724.9L30.5556 1724.91L33.6502 -4.09167L30.7682 -4.09683Z" fill="#A0A3BD"/>
<path d="M99.7782 -3.99349L96.6836 1725L99.5656 1725.01L102.66 -3.98834L99.7782 -3.99349Z" fill="#A0A3BD"/>
<path d="M168.788 -3.89016L165.694 1725.11L168.576 1725.11L171.67 -3.885L168.788 -3.89016Z" fill="#A0A3BD"/>
<path d="M237.798 -3.78683L234.704 1725.21L237.586 1725.22L240.68 -3.78167L237.798 -3.78683Z" fill="#A0A3BD"/>
<path d="M306.808 -3.68417L303.714 1725.31L306.596 1725.32L309.69 -3.67901L306.808 -3.68417Z" fill="#A0A3BD"/>
<path d="M375.818 -3.58084L372.724 1725.42L375.606 1725.42L378.7 -3.57568L375.818 -3.58084Z" fill="#A0A3BD"/>
<path d="M444.828 -3.4775L441.734 1725.52L444.616 1725.52L447.71 -3.47234L444.828 -3.4775Z" fill="#A0A3BD"/>
<path d="M513.838 -3.37484L510.744 1725.62L513.626 1725.63L516.72 -3.36968L513.838 -3.37484Z" fill="#A0A3BD"/>
<path d="M582.848 -3.27151L579.754 1725.73L582.636 1725.73L585.731 -3.26635L582.848 -3.27151Z" fill="#A0A3BD"/>
<path d="M651.859 -3.16818L648.764 1725.83L651.646 1725.83L654.741 -3.16302L651.859 -3.16818Z" fill="#A0A3BD"/>
<path d="M720.869 -3.06484L717.774 1725.93L720.656 1725.94L723.75 -3.05969L720.869 -3.06484Z" fill="#A0A3BD"/>
<path d="M789.879 -2.96218L786.784 1726.04L789.666 1726.04L792.761 -2.95702L789.879 -2.96218Z" fill="#A0A3BD"/>
<path d="M858.889 -2.85885L855.794 1726.14L858.676 1726.14L861.771 -2.85369L858.889 -2.85885Z" fill="#A0A3BD"/>
<path d="M927.899 -2.75552L924.804 1726.24L927.686 1726.25L930.781 -2.75036L927.899 -2.75552Z" fill="#A0A3BD"/>
<path d="M996.909 -2.65219L993.814 1726.35L996.696 1726.35L999.791 -2.64703L996.909 -2.65219Z" fill="#A0A3BD"/>
<path d="M1065.92 -2.54952L1062.82 1726.45L1065.71 1726.45L1068.8 -2.54437L1065.92 -2.54952Z" fill="#A0A3BD"/>
<path d="M1134.93 -2.44619L1131.83 1726.55L1134.72 1726.56L1137.81 -2.44103L1134.93 -2.44619Z" fill="#A0A3BD"/>
<path d="M1203.94 -2.34286L1200.84 1726.65L1203.73 1726.66L1206.82 -2.3377L1203.94 -2.34286Z" fill="#A0A3BD"/>
<path d="M1272.95 -2.23953L1269.85 1726.76L1272.74 1726.76L1275.83 -2.23437L1272.95 -2.23953Z" fill="#A0A3BD"/>
<path d="M1341.96 -2.13687L1338.86 1726.86L1341.75 1726.87L1344.84 -2.13171L1341.96 -2.13687Z" fill="#A0A3BD"/>
<path d="M1410.97 -2.03353L1407.87 1726.96L1410.76 1726.97L1413.85 -2.02838L1410.97 -2.03353Z" fill="#A0A3BD"/>
<path d="M1479.98 -1.93017L1476.89 1727.07L1479.77 1727.07L1482.86 -1.92501L1479.98 -1.93017Z" fill="#A0A3BD"/>
<path d="M1548.99 -1.82754L1545.9 1727.17L1548.78 1727.17L1551.87 -1.82238L1548.99 -1.82754Z" fill="#A0A3BD"/>
<path d="M1618 -1.72418L1614.9 1727.27L1617.79 1727.28L1620.88 -1.71902L1618 -1.72418Z" fill="#A0A3BD"/>
<path d="M1687.01 -1.62084L1683.92 1727.38L1686.8 1727.38L1689.89 -1.61569L1687.01 -1.62084Z" fill="#A0A3BD"/>
<path d="M65.2731 -4.04482L62.1785 1724.95L65.0605 1724.96L68.1551 -4.03967L65.2731 -4.04482Z" fill="#A0A3BD"/>
<path d="M134.283 -3.94216L131.189 1725.06L134.071 1725.06L137.165 -3.93701L134.283 -3.94216Z" fill="#A0A3BD"/>
<path d="M203.293 -3.83883L200.199 1725.16L203.081 1725.16L206.175 -3.83367L203.293 -3.83883Z" fill="#A0A3BD"/>
<path d="M272.303 -3.7355L269.209 1725.26L272.091 1725.27L275.185 -3.73034L272.303 -3.7355Z" fill="#A0A3BD"/>
<path d="M341.313 -3.63217L338.219 1725.37L341.101 1725.37L344.195 -3.62701L341.313 -3.63217Z" fill="#A0A3BD"/>
<path d="M410.323 -3.52951L407.229 1725.47L410.111 1725.47L413.205 -3.52435L410.323 -3.52951Z" fill="#A0A3BD"/>
<path d="M479.334 -3.42617L476.239 1725.57L479.121 1725.58L482.216 -3.42101L479.334 -3.42617Z" fill="#A0A3BD"/>
<path d="M548.344 -3.32284L545.249 1725.67L548.131 1725.68L551.226 -3.31768L548.344 -3.32284Z" fill="#A0A3BD"/>
<path d="M617.354 -3.21951L614.259 1725.78L617.141 1725.78L620.236 -3.21435L617.354 -3.21951Z" fill="#A0A3BD"/>
<path d="M686.364 -3.11685L683.269 1725.88L686.151 1725.89L689.246 -3.11169L686.364 -3.11685Z" fill="#A0A3BD"/>
<path d="M755.374 -3.01351L752.279 1725.98L755.161 1725.99L758.256 -3.00836L755.374 -3.01351Z" fill="#A0A3BD"/>
<path d="M824.384 -2.91018L821.289 1726.09L824.171 1726.09L827.266 -2.90502L824.384 -2.91018Z" fill="#A0A3BD"/>
<path d="M893.394 -2.80685L890.299 1726.19L893.181 1726.2L896.276 -2.80169L893.394 -2.80685Z" fill="#A0A3BD"/>
<path d="M962.404 -2.70419L959.309 1726.29L962.191 1726.3L965.286 -2.69903L962.404 -2.70419Z" fill="#A0A3BD"/>
<path d="M1031.41 -2.60086L1028.32 1726.4L1031.2 1726.4L1034.3 -2.5957L1031.41 -2.60086Z" fill="#A0A3BD"/>
<path d="M1100.42 -2.49752L1097.33 1726.5L1100.21 1726.5L1103.31 -2.49236L1100.42 -2.49752Z" fill="#A0A3BD"/>
<path d="M1169.43 -2.39486L1166.34 1726.6L1169.22 1726.61L1172.32 -2.3897L1169.43 -2.39486Z" fill="#A0A3BD"/>
<path d="M1238.44 -2.29153L1235.35 1726.71L1238.23 1726.71L1241.33 -2.28637L1238.44 -2.29153Z" fill="#A0A3BD"/>
<path d="M1307.45 -2.1882L1304.36 1726.81L1307.24 1726.81L1310.34 -2.18304L1307.45 -2.1882Z" fill="#A0A3BD"/>
<path d="M1376.46 -2.08486L1373.37 1726.91L1376.25 1726.92L1379.35 -2.07971L1376.46 -2.08486Z" fill="#A0A3BD"/>
<path d="M1445.47 -1.9822L1442.38 1727.02L1445.26 1727.02L1448.36 -1.97704L1445.47 -1.9822Z" fill="#A0A3BD"/>
<path d="M1514.48 -1.87887L1511.39 1727.12L1514.27 1727.12L1517.37 -1.87371L1514.48 -1.87887Z" fill="#A0A3BD"/>
<path d="M1583.49 -1.77551L1580.4 1727.22L1583.28 1727.23L1586.38 -1.77035L1583.49 -1.77551Z" fill="#A0A3BD"/>
<path d="M1652.5 -1.67217L1649.41 1727.33L1652.29 1727.33L1655.39 -1.66702L1652.5 -1.67217Z" fill="#A0A3BD"/>
</g>
<defs>
<clipPath id="clip0_1308_11225">
<rect width="1729" height="1729" fill="white"/>
</clipPath>
</defs>
</svg>
