<svg width="127" height="127" viewBox="0 0 127 127" fill="none" xmlns="http://www.w3.org/2000/svg">
<path d="M37.944 38.444L41.3618 35.9755C40.2911 34.4931 38.3868 33.8699 36.6469 34.4325C34.9069 34.9951 33.728 36.6154 33.728 38.444H37.944ZM63.24 118.548C32.9704 118.548 8.432 94.01 8.432 63.74H0C0 98.6662 28.3135 126.98 63.24 126.98V118.548ZM118.048 63.74C118.048 94.01 93.51 118.548 63.24 118.548V126.98C98.1662 126.98 126.48 98.6662 126.48 63.74H118.048ZM63.24 8.932C93.51 8.932 118.048 33.4704 118.048 63.74H126.48C126.48 28.8135 98.1662 0.5 63.24 0.5V8.932ZM63.24 0.5C28.3135 0.5 0 28.8135 0 63.74H8.432C8.432 33.4704 32.9704 8.932 63.24 8.932V0.5ZM42.16 101.684V38.444H33.728V101.684H42.16ZM34.5262 40.9125L89.3345 116.8L96.1695 111.864L41.3618 35.9755L34.5262 40.9125ZM84.32 34.228V84.82H92.752V34.228H84.32Z" fill="white"/>
</svg>
