<svg fill="none" height="32" viewBox="0 0 32 32" width="32" xmlns="http://www.w3.org/2000/svg" xmlns:xlink="http://www.w3.org/1999/xlink"><linearGradient id="a" gradientUnits="userSpaceOnUse" x1="26.5" x2="4" y1="7" y2="28"><stop offset="0" stop-color="#5bd066"/><stop offset="1" stop-color="#27b43e"/></linearGradient><path clip-rule="evenodd" d="m16 31c7.732 0 14-6.268 14-14 0-7.73199-6.268-14-14-14-7.73199 0-14 6.26801-14 14 0 2.5109.661 4.8674 1.81847 6.905l-1.81847 7.095 7.31486-1.6962c1.98654 1.0816 4.26404 1.6962 6.68514 1.6962zm0-2.1538c6.5425 0 11.8462-5.3037 11.8462-11.8462 0-6.5424-5.3037-11.84615-11.8462-11.84615-6.54245 0-11.84615 5.30375-11.84615 11.84615 0 2.5261.79065 4.8675 2.13799 6.7902l-1.06107 3.979 4.04916-1.0123c1.90947 1.3177 4.22467 2.0893 6.72007 2.0893z" fill="#bfc8d0" fill-rule="evenodd"/><path d="m28 16c0 6.6274-5.3726 12-12 12-2.5278 0-4.8731-.7816-6.80734-2.1163l-4.10175 1.0254 1.07485-4.0307c-1.36484-1.9477-2.16576-4.3195-2.16576-6.8784 0-6.62742 5.37258-12 12-12 6.6274 0 12 5.37258 12 12z" fill="url(#a)"/><g fill="#fff"><path clip-rule="evenodd" d="m16 30c7.732 0 14-6.268 14-14 0-7.73199-6.268-14-14-14-7.73199 0-14 6.26801-14 14 0 2.5109.661 4.8674 1.81847 6.905l-1.81847 7.095 7.31486-1.6962c1.98654 1.0816 4.26404 1.6962 6.68514 1.6962zm0-2.1538c6.5425 0 11.8462-5.3037 11.8462-11.8462 0-6.54245-5.3037-11.84615-11.8462-11.84615-6.54245 0-11.84615 5.3037-11.84615 11.84615 0 2.5261.79065 4.8675 2.13799 6.7902l-1.06107 3.979 4.04916-1.0123c1.90947 1.3177 4.22467 2.0893 6.72007 2.0893z" fill-rule="evenodd"/><path d="m12.5 9.49989c-.3328-.66858-.8435-.60939-1.3593-.60939-.9219 0-2.35945 1.10428-2.35945 3.1595 0 1.6843.7422 3.528 3.24315 6.2861 2.4136 2.6618 5.585 4.0387 8.2178 3.9918 2.6328-.0468 3.1745-2.3125 3.1745-3.0776 0-.3391-.2105-.5083-.3554-.5543-.8972-.4306-2.552-1.2329-2.9285-1.3836s-.5731.0532-.6953.1641c-.3414.3253-1.0182 1.2843-1.25 1.5-.2317.2157-.5772.1065-.721.025-.5291-.2123-1.9636-.8504-3.107-1.9589-1.4142-1.3708-1.4972-1.8425-1.7636-2.2623-.2131-.3359-.0567-.5419.0213-.632.3047-.3515.7254-.8943.9141-1.164.1886-.2698.0389-.6793-.051-.9343-.3865-1.097-.714-2.0153-.9803-2.55011z"/></g></svg>