<svg width="127" height="74" viewBox="0 0 127 74" fill="none" xmlns="http://www.w3.org/2000/svg">
<path d="M126.48 71.9663C121.88 73.1365 119.035 72.0167 116.482 68.1831C110.752 59.5977 104.426 51.4058 98.3229 43.0626C97.536 41.9831 96.7188 40.9238 95.6999 39.5821C88.4765 49.3276 81.2632 58.609 74.4938 68.2638C72.0725 71.7141 69.5302 73.2173 65.0105 71.9965L92.1689 35.5467L66.887 2.62776C71.2352 1.78032 74.2415 2.21413 76.9049 6.1083C82.7865 14.7037 89.2735 22.8855 95.7402 31.5415C102.247 22.9158 108.654 14.7239 114.707 6.20919C117.138 2.75891 119.751 1.4474 124.119 2.71855C120.81 7.10707 117.572 11.425 114.313 15.7126C109.915 21.4933 105.597 27.3447 101.037 33.0043C99.4124 35.0221 99.6748 36.3336 101.128 38.2403C109.562 49.3276 117.895 60.5259 126.48 71.9663Z" fill="white"/>
<path d="M0.0302657 34.9414C0.756641 31.2994 1.24089 27.5868 2.24974 24.0155C8.30287 2.39572 33.1207 -6.59317 50.1703 6.80441C60.158 14.6634 62.6397 25.7406 62.1454 38.2302H5.85135C5.00392 60.6369 21.1355 74.1656 41.6959 67.265C48.9092 64.8438 53.1565 59.1942 55.2852 52.1322C56.3647 48.5911 58.1503 48.0363 61.4796 49.0451C59.7746 57.8827 55.9107 65.2675 47.8399 69.888C35.7336 76.8088 18.4519 74.5691 9.36216 64.9548C3.99506 59.3052 1.71505 52.2735 0.706198 44.6768C0.55487 43.4662 0.242125 42.2757 0 41.0752C0.0201771 39.0306 0.0302657 36.986 0.0302657 34.9414ZM5.95224 33.4382H56.8287C56.4958 17.236 46.4073 5.72494 32.6162 5.62405C17.4834 5.50299 6.60799 16.7416 5.95224 33.4382Z" fill="white"/>
</svg>
