<svg width="127" height="77" viewBox="0 0 127 77" fill="none" xmlns="http://www.w3.org/2000/svg">
<path d="M29.844 20.4012H53.6992V22.2972H32.0307V36.5675H52.4071V38.4635H32.0307V54.1309H53.9477V56.027H29.844V20.4012ZM55.8363 20.4012H58.3709L69.6028 36.0685L81.0831 20.4012L96.6983 0.5L71.044 37.7151L84.2638 56.027H81.6298L69.6028 39.3617L57.526 56.027H54.9417L68.2609 37.7151L55.8363 20.4012ZM85.2081 22.2972V20.4012H112.393V22.2972H99.8692V56.027H97.6824V22.2972H85.2081ZM0 20.4012H2.73342L40.4257 76.804L24.8493 56.027L2.28613 23.0955L2.18673 56.027H0L0 20.4012ZM112.173 53.5587C111.726 53.5587 111.391 53.2126 111.391 52.7652C111.391 52.3179 111.726 51.9717 112.173 51.9717C112.625 51.9717 112.955 52.3179 112.955 52.7652C112.955 53.2126 112.625 53.5587 112.173 53.5587ZM114.322 51.4711H115.492C115.508 52.1048 115.97 52.5309 116.651 52.5309C117.412 52.5309 117.843 52.0729 117.843 51.2155V45.7834H119.034V51.2208C119.034 52.7652 118.14 53.6546 116.662 53.6546C115.274 53.6546 114.322 52.7918 114.322 51.4711ZM120.592 51.4019H121.773C121.874 52.1315 122.587 52.5948 123.613 52.5948C124.571 52.5948 125.273 52.0995 125.273 51.4178C125.273 50.832 124.826 50.4805 123.81 50.2409L122.821 50.0012C121.433 49.6764 120.8 49.0054 120.8 47.8763C120.8 46.5077 121.917 45.597 123.592 45.597C125.15 45.597 126.289 46.5077 126.358 47.8018H125.198C125.087 47.0935 124.47 46.6515 123.576 46.6515C122.635 46.6515 122.007 47.1041 122.007 47.7965C122.007 48.345 122.411 48.6592 123.411 48.8935L124.257 49.1012C125.831 49.4687 126.48 50.1078 126.48 51.2634C126.48 52.7333 125.342 53.6546 123.523 53.6546C121.821 53.6546 120.677 52.7759 120.592 51.4019Z" fill="white"/>
</svg>
